# xmcd
#
# Track frame offsets: 
#        150
#        14816
#        27287
#        39959
#        52207
#        66344
#        78839
#        91808
#        103855
#        116620
#        128971
#        143713
#        157063
#        163686
#        179227
#        190994
#        208033
#        217144
#        231543
#        243995
#
# Disc length: 3414 seconds
#
# Revision: 11
# Processed by: cddbd v1.5.2PL0 Copyright (c) Steve Scherf et al.
# Submitted via: ExactAudioCopy v1.1
#
DISCID=320d5414
DTITLE=Various Artist - CD02_1930-33
DYEAR=2006
DGENRE=Country
TTITLE0=Yellow Jackets (1930) - Huskin' Bee
TTITLE1=Kentucky Ramblers (1930) - With My Mother
TTITLE2=Ernest Phipps (1930) - A Little Talk With Jesus
TTITLE3=Walker's Corbin Ramblers (1930) - Ned Went-A-Fishin'
TTITLE4=Joe Mccoy and Memphis Minnie (1931) - Let's Got To Town
TTITLE5=Jimmie Rodgers (1931) - My Good Gal's Gone
TTITLE6=Woodie Brothers (1931) - Chased Old Satan
TTITLE7=Jimmie Rodgers (1931) - Let Me Be Your Slide Track
TTITLE8=Dave and Howard (1931) - My Bones Gonna Rise Again
TTITLE9=Woodie Brothers (1931) - Like Likker Better Than Me
TTITLE10=Jimmie Rodgers (1932) - Down On The Old Road To Home
TTITLE11=Alfred Karnes (1933) - We Shall Be Reunited
TTITLE12=W.M. Stepp and Mae Puckett (1933) - The Old Hen
TTITLE13=Jimmie Rodgers (1933) - Mississippi Delta
TTITLE14=Kentucky Ramblers (1934) - Do Not Wait
TTITLE15=B.F. Shelton (1931) - Darling Cora
TTITLE16=W.M. Stepp (1931) - Callahan
TTITLE17=Nancy Jane (1932) - Fort Worth Dough Boys
TTITLE18=Renfro Valley Boys (1932) - Who's Gonna Shoe Your Pretty Litt
TTITLE18=le Feet
TTITLE19=Milton Brown (1936) - Hesitation Blues
EXTD=
EXTT0=
EXTT1=
EXTT2=
EXTT3=
EXTT4=
EXTT5=
EXTT6=
EXTT7=
EXTT8=
EXTT9=
EXTT10=
EXTT11=
EXTT12=
EXTT13=
EXTT14=
EXTT15=
EXTT16=
EXTT17=
EXTT18=
EXTT19=
PLAYORDER=
